<svg height="512pt" viewBox="0 -9 512.00002 512" width="512pt" xmlns="http://www.w3.org/2000/svg"><path d="m142.699219 142.429688-30.078125-30.101563c-2.980469 4.054687-6.625 7.589844-10.769532 10.445313l32.28125 32.304687c2.636719-4.375 5.5-8.59375 8.566407-12.648437zm0 0" fill="#a2f9f9"/><path d="m390.445312 171.21875 27.378907-21.394531c-3.523438-3.566407-6.453125-7.714844-8.628907-12.292969l-25.671874 20.058594c2.535156 4.402344 4.84375 8.949218 6.921874 13.628906zm0 0" fill="#a2f9f9"/><path d="m150.699219 327.90625-39.121094 39.148438c4.0625 2.957031 7.796875 6.332031 11.132813 10.082031l38.585937-38.613281c-3.710937-3.355469-7.25-6.898438-10.597656-10.617188zm0 0" fill="#a2f9f9"/><path d="m348.339844 344.097656 36.246094 36.273438c2.925781-4.09375 6.265624-7.863282 9.980468-11.230469l-35.011718-35.039063c-3.566407 3.523438-7.308594 6.859376-11.214844 9.996094zm0 0" fill="#a2f9f9"/><g fill="#75eae7"><path d="m117.4375 67.542969c.125-.097657.25-.191407.371094-.296875 2.929687-2.546875 5.96875-5.050782 9.035156-7.4375 3.265625-2.546875 3.851562-7.257813 1.304688-10.527344-2.546876-3.265625-7.257813-3.851562-10.527344-1.304688-2.898438 2.257813-5.765625 4.625-8.558594 7.027344 3.453125 3.65625 6.296875 7.886719 8.375 12.539063zm0 0"/><path d="m383.148438 55.164062c3.140624 2.269532 6.269531 4.664063 9.296874 7.113282 1.390626 1.125 3.058594 1.671875 4.714844 1.671875 2.183594 0 4.351563-.953125 5.832032-2.785157 2.605468-3.21875 2.109374-7.941406-1.109376-10.546874-3.238281-2.617188-6.582031-5.179688-9.945312-7.609376-3.355469-2.425781-8.046875-1.671874-10.472656 1.683594-2.429688 3.355469-1.675782 8.046875 1.683594 10.472656zm0 0"/><path d="m57.417969 134.59375c1.097656.566406 2.269531.832031 3.425781.832031 2.722656 0 5.34375-1.484375 6.675781-4.066406.25-.488281.515625-.96875.769531-1.453125-5.078124-.941406-9.855468-2.742188-14.183593-5.246094-1.765625 3.648438-.316407 8.0625 3.3125 9.933594zm0 0"/><path d="m40.210938 273.703125c-4.035157.933594-6.550782 4.960937-5.617188 8.996094.9375 4.046875 1.996094 8.125 3.148438 12.117187.953124 3.28125 3.949218 5.414063 7.203124 5.414063.691407 0 1.390626-.09375 2.085938-.296875 3.980469-1.148438 6.273438-5.308594 5.121094-9.289063-1.078125-3.730469-2.070313-7.539062-2.945313-11.324219-.929687-4.035156-4.960937-6.550781-8.996093-5.617187zm0 0"/><path d="m62.171875 318.113281c-1.679687-3.789062-6.109375-5.492187-9.898437-3.8125-3.785157 1.679688-5.492188 6.113281-3.808594 9.898438 1.683594 3.789062 3.492187 7.585937 5.378906 11.277343 1.328125 2.597657 3.957031 4.09375 6.6875 4.09375 1.144531 0 2.3125-.265624 3.402344-.824218 3.691406-1.882813 5.152344-6.402344 3.269531-10.089844-1.765625-3.453125-3.457031-7-5.03125-10.542969zm0 0"/><path d="m43.03125 174.445312c.707031.207032 1.414062.304688 2.113281.304688 3.242188 0 6.234375-2.125 7.195313-5.398438 1.089844-3.722656 2.296875-7.46875 3.589844-11.136718 1.378906-3.90625-.671876-8.1875-4.578126-9.566406-3.90625-1.378907-8.1875.671874-9.566406 4.578124-1.382812 3.917969-2.675781 7.929688-3.84375 11.914063-1.164062 3.976563 1.117188 8.140625 5.089844 9.304687zm0 0"/><path d="m71.789062 351.847656c-.765624.53125-1.394531 1.1875-1.894531 1.914063.289063-.003907.574219-.019531.863281-.019531 4.191407 0 8.289063.394531 12.28125 1.109374-.265624-.378906-.546874-.75-.808593-1.128906-2.363281-3.398437-7.039063-4.238281-10.441407-1.875zm0 0"/><path d="m468.824219 190.191406c.714843 3.808594 1.332031 7.695313 1.84375 11.558594.496093 3.773438 3.71875 6.519531 7.425781 6.519531.328125 0 .65625-.019531.988281-.0625 4.109375-.542969 6.996094-4.3125 6.457031-8.417969-.546874-4.125-1.207031-8.285156-1.96875-12.359374-.765624-4.070313-4.679687-6.753907-8.753906-5.988282-4.070312.761719-6.753906 4.679688-5.992187 8.75zm0 0"/><path d="m468.621094 167.019531c.785156 0 1.582031-.125 2.367187-.386719 3.933594-1.304687 6.058594-5.550781 4.75-9.480468-.207031-.625-.4375-1.25-.652343-1.875-4.113282 2.839844-8.726563 5.003906-13.671876 6.34375.027344.089844.0625.175781.09375.265625 1.042969 3.144531 3.972657 5.132812 7.113282 5.132812zm0 0"/><path d="m417.964844 86.636719c3.550781-3.5625 7.691406-6.535157 12.265625-8.75-1.78125-2.03125-3.585938-4.042969-5.425781-5.996094-2.839844-3.019531-7.585938-3.160156-10.601563-.320313-3.015625 2.839844-3.160156 7.585938-.320313 10.601563 1.375 1.460937 2.738282 2.953125 4.082032 4.464844zm0 0"/><path d="m456.300781 331.070312c1.019531.46875 2.089844.691407 3.144531.691407 2.832032 0 5.542969-1.609375 6.8125-4.351563 1.746094-3.769531 3.410157-7.648437 4.953126-11.523437 1.53125-3.847657-.347657-8.207031-4.195313-9.742188-3.851563-1.527343-8.210937.351563-9.742187 4.199219-1.441407 3.621094-3 7.242188-4.628907 10.769531-1.742187 3.757813-.105469 8.214844 3.65625 9.957031zm0 0"/><path d="m448.945312 344.492188c-3.484374-2.230469-8.125-1.210938-10.355468 2.273437-.980469 1.53125-1.984375 3.050781-3.007813 4.5625 1.867188-.152344 3.753907-.25 5.660157-.25 3.769531 0 7.464843.3125 11.070312.894531.445312-2.851562-.78125-5.828125-3.367188-7.480468zm0 0"/><path d="m487.199219 242.816406c.21875-4.144531.332031-8.351562.332031-12.5 0-4.144531-3.359375-7.5-7.5-7.5-4.144531 0-7.5 3.355469-7.5 7.5 0 3.886719-.105469 7.824219-.3125 11.703125-.21875 4.136719 2.957031 7.671875 7.09375 7.890625.132812.003906.269531.007813.402344.007813 3.960937 0 7.269531-3.101563 7.484375-7.101563zm0 0"/><path d="m480.773438 286.085938c.996093-4.027344 1.894531-8.140626 2.671874-12.230469.773438-4.070313-1.898437-7.996094-5.96875-8.769531-4.0625-.773438-7.996093 1.898437-8.765624 5.96875-.730469 3.820312-1.566407 7.667968-2.5 11.429687-.992188 4.019531 1.460937 8.085937 5.480468 9.082031.605469.148438 1.210938.222656 1.804688.222656 3.367187 0 6.433594-2.289062 7.277344-5.703124zm0 0"/><path d="m238.296875.570312c-4.148437.359376-8.332031.832032-12.441406 1.414063-4.101563.578125-6.953125 4.375-6.375 8.476563.527343 3.746093 3.738281 6.449218 7.417969 6.449218.347656 0 .703124-.023437 1.058593-.074218 3.835938-.542969 7.746094-.984376 11.625-1.320313 4.125-.351563 7.183594-3.984375 6.828125-8.113281-.355468-4.128906-3.988281-7.1875-8.113281-6.832032zm0 0"/><path d="m308.640625 439.882812c-3.769531.914063-7.617187 1.738282-11.4375 2.445313-4.070313.753906-6.761719 4.667969-6.007813 8.742187.667969 3.609376 3.820313 6.132813 7.367188 6.132813.453125 0 .910156-.039063 1.375-.125 4.085938-.757813 8.207031-1.640625 12.246094-2.621094 4.023437-.976562 6.492187-5.03125 5.515625-9.054687-.976563-4.027344-5.03125-6.496094-9.058594-5.519532zm0 0"/><path d="m268.167969 445.671875c-3.875.179687-7.808594.257813-11.703125.226563-.019532 0-.039063 0-.0625 0-4.113282 0-7.464844 3.320312-7.496094 7.441406-.035156 4.144531 3.296875 7.527344 7.441406 7.558594.578125.003906 1.160156.007812 1.742188.007812 3.582031 0 7.207031-.085938 10.773437-.25 4.136719-.191406 7.335938-3.703125 7.144531-7.839844-.195312-4.136718-3.675781-7.351562-7.839843-7.144531zm0 0"/><path d="m324.929688 9.664062c-3.972657-1.214843-8.035157-2.332031-12.074219-3.328124-4.019531-.984376-8.082031 1.46875-9.074219 5.492187-.988281 4.019531 1.46875 8.082031 5.488281 9.074219 3.769531.925781 7.566407 1.972656 11.277344 3.105468.730469.226563 1.46875.332032 2.195313.332032 3.210937 0 6.183593-2.078125 7.167968-5.308594 1.210938-3.960938-1.019531-8.15625-4.980468-9.367188zm0 0"/><path d="m282.035156.96875c-4.125-.429688-8.324218-.753906-12.476562-.9609375-4.164063-.2031245-7.65625 2.9843755-7.863282 7.1210935-.203124 4.136719 2.984376 7.65625 7.121094 7.863282 3.882813.191406 7.808594.492187 11.664063.894531.265625.027343.527343.039062.789062.039062 3.792969 0 7.046875-2.867187 7.449219-6.722656.429688-4.117187-2.5625-7.804687-6.683594-8.234375zm0 0"/><path d="m347.230469 426.457031c-3.523438 1.621094-7.136719 3.164063-10.738281 4.585938-3.851563 1.523437-5.738282 5.878906-4.21875 9.730469 1.164062 2.949218 3.988281 4.746093 6.976562 4.746093.917969 0 1.851562-.167969 2.753906-.527343 3.855469-1.523438 7.726563-3.175782 11.496094-4.910157 3.761719-1.730469 5.410156-6.1875 3.679688-9.949219-1.730469-3.761718-6.1875-5.410156-9.949219-3.675781zm0 0"/><path d="m365.390625 26.445312c-3.675781-1.957031-7.449219-3.835937-11.222656-5.585937-3.761719-1.746094-8.21875-.113281-9.960938 3.644531-1.742187 3.757813-.109375 8.21875 3.648438 9.960938 3.523437 1.632812 7.050781 3.390625 10.484375 5.21875 1.121094.601562 2.328125.882812 3.519531.882812 2.679687 0 5.277344-1.441406 6.625-3.972656 1.949219-3.660156.5625-8.199219-3.09375-10.148438zm0 0"/><path d="m150.4375 416.816406c-3.351562-1.960937-6.695312-4.042968-9.945312-6.1875-.4375-.289062-.898438-.527344-1.367188-.714844.90625 4.511719 1.390625 9.171876 1.390625 13.949219 0 1.476563-.0625 2.9375-.152344 4.390625.835938.503906 1.664063 1.019532 2.5 1.507813 1.191407.699219 2.496094 1.027343 3.78125 1.027343 2.578125 0 5.085938-1.328124 6.480469-3.714843 2.09375-3.574219.886719-8.167969-2.6875-10.257813zm0 0"/><path d="m36.453125 216.28125c.242187.019531.480469.03125.71875.03125 3.820313 0 7.089844-2.90625 7.457031-6.789062.371094-3.875.847656-7.78125 1.421875-11.617188.613281-4.097656-2.207031-7.914062-6.304687-8.53125-4.097656-.613281-7.914063 2.210938-8.527344 6.304688-.617188 4.101562-1.125 8.28125-1.523438 12.421874-.390624 4.125 2.632813 7.785157 6.757813 8.179688zm0 0"/><path d="m37.089844 258.640625c.230468 0 .464844-.011719.695312-.03125 4.125-.378906 7.164063-4.03125 6.78125-8.15625-.351562-3.863281-.609375-7.792969-.757812-11.683594-.160156-4.136719-3.640625-7.339843-7.78125-7.207031-4.140625.160156-7.367188 3.644531-7.207032 7.78125.15625 4.15625.433594 8.355469.8125 12.484375.355469 3.890625 3.628907 6.8125 7.457032 6.8125zm0 0"/><path d="m154.519531 24.5c-3.699219 1.886719-7.394531 3.894531-10.984375 5.980469-3.582031 2.078125-4.800781 6.667969-2.722656 10.25 1.390625 2.398437 3.90625 3.738281 6.492188 3.738281 1.277343 0 2.574218-.328125 3.757812-1.015625 3.355469-1.945313 6.808594-3.824219 10.265625-5.585937 3.691406-1.878907 5.15625-6.394532 3.277344-10.085938-1.878907-3.691406-6.398438-5.160156-10.085938-3.28125zm0 0"/><path d="m227.3125 443.703125c-3.847656-.554687-7.726562-1.226563-11.527344-1.988281-4.0625-.820313-8.015625 1.8125-8.832031 5.871094-.816406 4.058593 1.8125 8.015624 5.875 8.832031 4.066406.820312 8.21875 1.535156 12.339844 2.128906.363281.054687.722656.078125 1.078125.078125 3.667968 0 6.875-2.691406 7.414062-6.425781.59375-4.101563-2.25-7.90625-6.347656-8.496094zm0 0"/><path d="m195.253906 8.484375c-3.996094 1.136719-8.011718 2.40625-11.945312 3.769531-3.914063 1.355469-5.988282 5.625-4.632813 9.539063 1.074219 3.101562 3.980469 5.046875 7.085938 5.046875.816406 0 1.644531-.132813 2.457031-.414063 3.671875-1.269531 7.421875-2.457031 11.152344-3.519531 3.980468-1.136719 6.289062-5.289062 5.152344-9.269531-1.136719-3.984375-5.285157-6.289063-9.269532-5.152344zm0 0"/><path d="m187.582031 433.984375c-3.675781-1.285156-7.359375-2.691406-10.949219-4.175781-3.832031-1.582032-8.214843.238281-9.796874 4.070312-1.582032 3.828125.238281 8.210938 4.066406 9.792969 3.847656 1.589844 7.792968 3.09375 11.726562 4.46875.820313.289063 1.652344.425781 2.476563.425781 3.097656 0 5.996093-1.9375 7.078125-5.027344 1.367187-3.910156-.695313-8.1875-4.601563-9.554687zm0 0"/></g><path d="m141.515625 423.863281c0-39.28125-31.679687-71.125-70.757813-71.125-39.078124 0-70.757812 31.84375-70.757812 71.125s31.679688 71.125 70.757812 71.125c39.078126 0 70.757813-31.84375 70.757813-71.125zm0 0" fill="#fb8276"/><path d="m89.777344 449.027344c-5.394532 3.792968-11.953125 6.027344-19.019532 6.027344-7.070312 0-13.625-2.234376-19.019531-6.027344-12 6.5-20.339843 18.945312-21.089843 33.421875 11.398437 7.902343 25.210937 12.539062 40.109374 12.539062 14.894532 0 28.707032-4.636719 40.105469-12.539062-.75-14.476563-9.085937-26.921875-21.085937-33.421875zm0 0" fill="#0291c9"/><path d="m105.03125 421.601562c0-19.023437-15.34375-34.449218-34.273438-34.449218-18.929687 0-34.273437 15.425781-34.273437 34.449218 0 19.027344 15.34375 34.453126 34.273437 34.453126 18.929688 0 34.273438-15.425782 34.273438-34.453126zm0 0" fill="#ffd5b3"/><path d="m512 421.203125c0-39.28125-31.679688-71.125-70.757812-71.125-39.078126 0-70.757813 31.84375-70.757813 71.125 0 39.277344 31.679687 71.121094 70.757813 71.121094 39.078124 0 70.757812-31.84375 70.757812-71.121094zm0 0" fill="#c7fffd"/><path d="m460.261719 446.367188c-5.394531 3.792968-11.949219 6.023437-19.019531 6.023437-7.066407 0-13.625-2.230469-19.019532-6.023437-12 6.496093-20.339844 18.945312-21.089844 33.417968 11.398438 7.902344 25.210938 12.539063 40.109376 12.539063 14.894531 0 28.707031-4.636719 40.109374-12.539063-.75-14.472656-9.089843-26.921875-21.089843-33.417968zm0 0" fill="#89c947"/><path d="m475.515625 418.941406c0-19.027344-15.34375-34.449218-34.273437-34.449218-18.929688 0-34.273438 15.421874-34.273438 34.449218s15.34375 34.449219 34.273438 34.449219c18.929687 0 34.273437-15.421875 34.273437-34.449219zm0 0" fill="#ffd5b3"/><path d="m403.925781 230.316406c0-80.960937-65.292969-146.59375-145.835937-146.59375-80.542969 0-145.835938 65.632813-145.835938 146.59375 0 80.960938 65.292969 146.59375 145.835938 146.59375 80.542968 0 145.835937-65.632812 145.835937-146.59375zm0 0" fill="#fcdb67"/><path d="m186.261719 209.671875h10.292969v-35.03125c0-1.589844 1.292968-2.882813 2.878906-2.882813h117.304687c1.589844 0 2.886719 1.292969 2.886719 2.882813v35.03125h10.289062c2.476563 0 4.800782.660156 6.816407 1.808594v-60.140625c0-16.15625-13.199219-29.378906-29.332031-29.378906h-98.621094c-16.136719 0-29.335938 13.222656-29.335938 29.378906v60.140625c2.019532-1.148438 4.34375-1.808594 6.820313-1.808594zm0 0" fill="#0291c9"/><path d="m323.824219 311.613281h-27.359375v20.507813c0 .628906-.128906 2.089844-1.320313 2.089844-.433593 0-.957031-.183594-1.503906-.53125l-30.664063-19.328126c-1.316406-.832031-3.050781-1.285156-4.890624-1.285156-1.835938 0-3.574219.453125-4.890626 1.285156l-30.660156 19.332032c-.546875.34375-1.066406.527344-1.503906.527344-1.1875 0-1.316406-1.460938-1.316406-2.089844v-20.507813h-27.363282c-10.050781 0-18.230468 8.214844-18.230468 18.3125v20.253907c23.742187 16.835937 52.703125 26.730468 83.96875 26.730468 31.261718 0 60.226562-9.894531 83.964844-26.730468v-20.257813c0-10.09375-8.175782-18.308594-18.230469-18.308594zm0 0" fill="#ef5050"/><path d="m269.007812 304.371094h-21.839843c-10.496094 0-20.257813-3.226563-28.351563-8.746094-.066406.386719-.101562.769531-.101562 1.140625v35.355469c0 2.835937 1.960937 3.917968 4.355468 2.40625l30.660157-19.332032c2.394531-1.511718 6.316406-1.511718 8.714843 0l30.660157 19.332032c2.398437 1.511718 4.359375.429687 4.359375-2.40625v-35.355469c0-.371094-.039063-.753906-.105469-1.140625-8.089844 5.519531-17.851563 8.746094-28.351563 8.746094zm0 0" fill="#c0272d"/><path d="m196.554688 253.535156v-44.863281h-10.292969c-8.1875 0-14.890625 6.730469-14.890625 14.953125v17.945312c0 8.226563 6.699218 14.957032 14.890625 14.957032h10.386719c-.058594-.992188-.09375-1.988282-.09375-2.992188zm0 0" fill="#ffb98a"/><path d="m329.914062 208.671875h-10.289062v44.863281c0 1.003906-.039062 2-.097656 2.988282h10.386718c8.1875 0 14.890626-6.726563 14.890626-14.953126v-17.945312c0-8.222656-6.703126-14.953125-14.890626-14.953125zm0 0" fill="#ffb98a"/><path d="m247.167969 305.371094c-28.460938 0-51.613281-23.253906-51.613281-51.839844v-78.890625c0-2.144531 1.738281-3.886719 3.878906-3.886719h117.304687c2.148438 0 3.886719 1.742188 3.886719 3.886719v78.890625c0 28.585938-23.15625 51.839844-51.617188 51.839844zm0 0" fill="#ffd5b3"/><path d="m227.316406 226.742188c-4.140625 0-7.5-3.355469-7.5-7.5v-11.960938c0-4.144531 3.359375-7.5 7.5-7.5s7.5 3.355469 7.5 7.5v11.960938c0 4.144531-3.359375 7.5-7.5 7.5zm0 0" fill="#775436"/><path d="m288.859375 226.742188c-4.144531 0-7.5-3.355469-7.5-7.5v-11.960938c0-4.144531 3.355469-7.5 7.5-7.5s7.5 3.355469 7.5 7.5v11.960938c0 4.144531-3.355469 7.5-7.5 7.5zm0 0" fill="#775436"/><path d="m267.023438 248.878906h-6.761719c-6.976563 0-12.652344-5.675781-12.652344-12.652344v-16.777343c0-4.144531 3.359375-7.5 7.5-7.5s7.5 3.355469 7.5 7.5v14.429687h4.414063c4.140624 0 7.5 3.359375 7.5 7.5s-3.359376 7.5-7.5 7.5zm0 0" fill="#c6a07d"/><path d="m258.085938 287.945312c-16.824219 0-30.511719-12.609374-30.511719-28.101562 0-4.144531 3.359375-7.5 7.5-7.5s7.5 3.355469 7.5 7.5c0 7.222656 6.957031 13.101562 15.511719 13.101562 8.558593 0 15.519531-5.878906 15.519531-13.101562 0-4.144531 3.355469-7.5 7.5-7.5 4.140625 0 7.5 3.355469 7.5 7.5 0 15.492188-13.691407 28.101562-30.519531 28.101562zm0 0" fill="#c6a07d"/><path d="m495.554688 118.304688c0-25.335938-20.527344-45.878907-45.847657-45.878907-25.320312 0-45.84375 20.542969-45.84375 45.878907 0 25.339843 20.523438 45.878906 45.84375 45.878906 25.320313 0 45.847657-20.539063 45.847657-45.878906zm0 0" fill="#d5e962"/><path d="m475.695312 156.097656c-.492187-9.476562-6.050781-17.613281-14.015624-21.75-3.410157 2.34375-7.53125 3.722656-11.972657 3.722656-4.441406 0-8.5625-1.378906-11.972656-3.722656-7.964844 4.136719-13.523437 12.273438-14.015625 21.75 7.386719 5.097656 16.335938 8.085938 25.984375 8.085938 9.65625 0 18.605469-2.988282 25.992187-8.085938zm0 0" fill="#ef5050"/><path d="m471.914062 116.847656c0-12.277344-9.941406-22.226562-22.207031-22.226562-12.261719 0-22.207031 9.949218-22.207031 22.226562 0 12.273438 9.945312 22.222656 22.207031 22.222656 12.265625 0 22.207031-9.949218 22.207031-22.222656zm0 0" fill="#ffd5b3"/><path d="m122.328125 85.792969c0-25.339844-20.527344-45.878907-45.84375-45.878907-25.320313 0-45.847656 20.539063-45.847656 45.878907 0 25.335937 20.527343 45.878906 45.847656 45.878906 25.316406 0 45.84375-20.542969 45.84375-45.878906zm0 0" fill="#c7fffd"/><path d="m102.472656 123.582031c-.496094-9.476562-6.050781-17.609375-14.015625-21.746093-3.410156 2.34375-7.53125 3.722656-11.972656 3.722656s-8.5625-1.378906-11.976563-3.722656c-7.960937 4.136718-13.519531 12.269531-14.011718 21.746093 7.386718 5.097657 16.335937 8.089844 25.988281 8.089844 9.648437 0 18.601563-2.992187 25.988281-8.089844zm0 0" fill="#f7931e"/><path d="m98.691406 84.335938c0-12.277344-9.945312-22.226563-22.207031-22.226563-12.265625 0-22.207031 9.949219-22.207031 22.226563 0 12.273437 9.941406 22.222656 22.207031 22.222656 12.261719 0 22.207031-9.949219 22.207031-22.222656zm0 0" fill="#ffd5b3"/></svg>